{
	"asset":{
		"generator":"Khronos glTF Blender I/O v4.0.44",
		"version":"2.0"
	},
	"scene":0,
	"scenes":[
		{
			"name":"Scene",
			"nodes":[
				7
			]
		},
		{
			"name":"Scene.001"
		}
	],
	"nodes":[
		{
			"mesh":0,
			"name":"Circle_Material.002_0"
		},
		{
			"mesh":1,
			"name":"Circle_Material.002_0.002"
		},
		{
			"children":[
				0,
				1
			],
			"name":"Circle",
			"rotation":[
				-0.70710688829422,
				0,
				0,
				0.7071066498756409
			],
			"scale":[
				100,
				99.99999237060547,
				99.99999237060547
			]
		},
		{
			"mesh":2,
			"name":"Circle.001_Material.001_0"
		},
		{
			"children":[
				3
			],
			"name":"Circle.001",
			"rotation":[
				-0.70710688829422,
				0,
				0,
				0.7071066498756409
			],
			"scale":[
				100,
				99.99999237060547,
				99.99999237060547
			]
		},
		{
			"children":[
				2,
				4
			],
			"name":"RootNode"
		},
		{
			"children":[
				5
			],
			"name":"cc39f4add0074847b674d8a1c75ef585.fbx",
			"rotation":[
				0.70710688829422,
				0,
				0,
				0.7071066498756409
			],
			"scale":[
				0.009999999776482582,
				0.010000000707805157,
				0.010000000707805157
			]
		},
		{
			"children":[
				6
			],
			"name":"Sketchfab_model",
			"rotation":[
				-0.70710688829422,
				0,
				0,
				0.7071066498756409
			]
		}
	],
	"materials":[
		{
			"doubleSided":true,
			"name":"MUG",
			"pbrMetallicRoughness":{
				"metallicFactor":0,
				"roughnessFactor":0.25999999046325684
			}
		},
		{
			"doubleSided":true,
			"name":"image_texture",
			"pbrMetallicRoughness":{
				"baseColorTexture":{
					"index":0
				},
				"metallicFactor":0,
				"roughnessFactor":0.25999999046325684
			}
		},
		{
			"doubleSided":true,
			"name":"Material.001",
			"pbrMetallicRoughness":{
				"baseColorTexture":{
					"index":1
				},
				"metallicFactor":0,
				"roughnessFactor":0.25
			}
		}
	],
	"meshes":[
		{
			"name":"Circle_Material.002_0",
			"primitives":[
				{
					"attributes":{
						"POSITION":0,
						"NORMAL":1,
						"TEXCOORD_0":2
					},
					"indices":3,
					"material":0
				}
			]
		},
		{
			"name":"Circle_Material.002_0.002",
			"primitives":[
				{
					"attributes":{
						"POSITION":4,
						"NORMAL":5,
						"TEXCOORD_0":6
					},
					"indices":7,
					"material":1
				}
			]
		},
		{
			"name":"Circle.001_Material.001_0",
			"primitives":[
				{
					"attributes":{
						"POSITION":8,
						"NORMAL":9,
						"TEXCOORD_0":10,
						"TEXCOORD_1":11
					},
					"indices":12,
					"material":2
				}
			]
		}
	],
	"textures":[
		{
			"sampler":0,
			"source":0
		},
		{
			"sampler":0,
			"source":1
		}
	],
	"images":[
		{
			"mimeType":"image/png",
			"name":"canvas_export",
			"uri":"canvas_export.png"
		},
		{
			"mimeType":"image/png",
			"name":"coffee texture",
			"uri":"coffee%20texture.png"
		}
	],
	"accessors":[
		{
			"bufferView":0,
			"componentType":5126,
			"count":2140,
			"max":[
				0.10318950563669205,
				0.052532728761434555,
				0.11988157033920288
			],
			"min":[
				-0.052532728761434555,
				-0.052532728761434555,
				-0.004188424441963434
			],
			"type":"VEC3"
		},
		{
			"bufferView":1,
			"componentType":5126,
			"count":2140,
			"type":"VEC3"
		},
		{
			"bufferView":2,
			"componentType":5126,
			"count":2140,
			"type":"VEC2"
		},
		{
			"bufferView":3,
			"componentType":5123,
			"count":10842,
			"type":"SCALAR"
		},
		{
			"bufferView":4,
			"componentType":5126,
			"count":559,
			"max":[
				0.048862069845199585,
				0.052532728761434555,
				0.11409862339496613
			],
			"min":[
				-0.052532728761434555,
				-0.052532728761434555,
				0.0007597466465085745
			],
			"type":"VEC3"
		},
		{
			"bufferView":5,
			"componentType":5126,
			"count":559,
			"type":"VEC3"
		},
		{
			"bufferView":6,
			"componentType":5126,
			"count":559,
			"type":"VEC2"
		},
		{
			"bufferView":7,
			"componentType":5123,
			"count":3024,
			"type":"SCALAR"
		},
		{
			"bufferView":8,
			"componentType":5126,
			"count":384,
			"max":[
				0.047741424292325974,
				0.047741424292325974,
				0.1025816947221756
			],
			"min":[
				-0.047741424292325974,
				-0.047741424292325974,
				0.10002192109823227
			],
			"type":"VEC3"
		},
		{
			"bufferView":9,
			"componentType":5126,
			"count":384,
			"type":"VEC3"
		},
		{
			"bufferView":10,
			"componentType":5126,
			"count":384,
			"type":"VEC2"
		},
		{
			"bufferView":11,
			"componentType":5126,
			"count":384,
			"type":"VEC2"
		},
		{
			"bufferView":12,
			"componentType":5123,
			"count":1866,
			"type":"SCALAR"
		}
	],
	"bufferViews":[
		{
			"buffer":0,
			"byteLength":25680,
			"byteOffset":0,
			"target":34962
		},
		{
			"buffer":0,
			"byteLength":25680,
			"byteOffset":25680,
			"target":34962
		},
		{
			"buffer":0,
			"byteLength":17120,
			"byteOffset":51360,
			"target":34962
		},
		{
			"buffer":0,
			"byteLength":21684,
			"byteOffset":68480,
			"target":34963
		},
		{
			"buffer":0,
			"byteLength":6708,
			"byteOffset":90164,
			"target":34962
		},
		{
			"buffer":0,
			"byteLength":6708,
			"byteOffset":96872,
			"target":34962
		},
		{
			"buffer":0,
			"byteLength":4472,
			"byteOffset":103580,
			"target":34962
		},
		{
			"buffer":0,
			"byteLength":6048,
			"byteOffset":108052,
			"target":34963
		},
		{
			"buffer":0,
			"byteLength":4608,
			"byteOffset":114100,
			"target":34962
		},
		{
			"buffer":0,
			"byteLength":4608,
			"byteOffset":118708,
			"target":34962
		},
		{
			"buffer":0,
			"byteLength":3072,
			"byteOffset":123316,
			"target":34962
		},
		{
			"buffer":0,
			"byteLength":3072,
			"byteOffset":126388,
			"target":34962
		},
		{
			"buffer":0,
			"byteLength":3732,
			"byteOffset":129460,
			"target":34963
		}
	],
	"samplers":[
		{
			"magFilter":9729,
			"minFilter":9987
		}
	],
	"buffers":[
		{
			"byteLength":133192,
			"uri":"MUG.bin"
		}
	]
}
