{
	"asset":{
		"generator":"Khronos glTF Blender I/O v4.0.44",
		"version":"2.0"
	},
	"scene":0,
	"scenes":[
		{
			"name":"Scene",
			"nodes":[
				0
			]
		},
		{
			"name":"Scene.001"
		}
	],
	"nodes":[
		{
			"mesh":0,
			"name":"Cylinder",
			"scale":[
				0.052495695650577545,
				0.052495695650577545,
				0.052495695650577545
			],
			"translation":[
				0,
				0.05643017590045929,
				0
			]
		}
	],
	"materials":[
		{
			"doubleSided":true,
			"name":"MUG",
			"pbrMetallicRoughness":{
				"metallicFactor":0,
				"roughnessFactor":0.25999999046325684
			}
		},
		{
			"doubleSided":true,
			"name":"coffee",
			"pbrMetallicRoughness":{
				"baseColorTexture":{
					"index":0
				},
				"metallicFactor":0,
				"roughnessFactor":0.25
			}
		},
		{
			"doubleSided":true,
			"name":"image_texture",
			"pbrMetallicRoughness":{
				"baseColorTexture":{
					"index":1
				},
				"metallicFactor":0,
				"roughnessFactor":0.25999999046325684
			}
		}
	],
	"meshes":[
		{
			"name":"Cylinder",
			"primitives":[
				{
					"attributes":{
						"POSITION":0,
						"NORMAL":1,
						"TEXCOORD_0":2
					},
					"indices":3,
					"material":0
				},
				{
					"attributes":{
						"POSITION":4,
						"NORMAL":5,
						"TEXCOORD_0":6
					},
					"indices":7,
					"material":1
				},
				{
					"attributes":{
						"POSITION":8,
						"NORMAL":9,
						"TEXCOORD_0":10
					},
					"indices":11,
					"material":2
				}
			]
		}
	],
	"textures":[
		{
			"sampler":0,
			"source":0
		},
		{
			"sampler":0,
			"source":1
		}
	],
	"images":[
		{
			"mimeType":"image/png",
			"name":"coffee texture.png",
			"uri":"textures/coffee%20texture_png.png"
		},
		{
			"mimeType":"image/png",
			"name":"canvas_export.png",
			"uri":"textures/canvas_export_png.png"
		}
	],
	"accessors":[
		{
			"bufferView":0,
			"componentType":5126,
			"count":1759,
			"max":[
				1.8881489038467407,
				1.1961605548858643,
				1
			],
			"min":[
				-1,
				-1.1505775451660156,
				-1
			],
			"type":"VEC3"
		},
		{
			"bufferView":1,
			"componentType":5126,
			"count":1759,
			"type":"VEC3"
		},
		{
			"bufferView":2,
			"componentType":5126,
			"count":1759,
			"type":"VEC2"
		},
		{
			"bufferView":3,
			"componentType":5123,
			"count":6366,
			"type":"SCALAR"
		},
		{
			"bufferView":4,
			"componentType":5126,
			"count":64,
			"max":[
				0.9484692811965942,
				1.0091482400894165,
				0.9484692811965942
			],
			"min":[
				-0.9484692811965942,
				1.0091482400894165,
				-0.9484692811965942
			],
			"type":"VEC3"
		},
		{
			"bufferView":5,
			"componentType":5126,
			"count":64,
			"type":"VEC3"
		},
		{
			"bufferView":6,
			"componentType":5126,
			"count":64,
			"type":"VEC2"
		},
		{
			"bufferView":7,
			"componentType":5123,
			"count":186,
			"type":"SCALAR"
		},
		{
			"bufferView":8,
			"componentType":5126,
			"count":118,
			"max":[
				0.9569403529167175,
				1.1515874862670898,
				1
			],
			"min":[
				-1,
				-1.0784744024276733,
				-1
			],
			"type":"VEC3"
		},
		{
			"bufferView":9,
			"componentType":5126,
			"count":118,
			"type":"VEC3"
		},
		{
			"bufferView":10,
			"componentType":5126,
			"count":118,
			"type":"VEC2"
		},
		{
			"bufferView":11,
			"componentType":5123,
			"count":348,
			"type":"SCALAR"
		}
	],
	"bufferViews":[
		{
			"buffer":0,
			"byteLength":21108,
			"byteOffset":0,
			"target":34962
		},
		{
			"buffer":0,
			"byteLength":21108,
			"byteOffset":21108,
			"target":34962
		},
		{
			"buffer":0,
			"byteLength":14072,
			"byteOffset":42216,
			"target":34962
		},
		{
			"buffer":0,
			"byteLength":12732,
			"byteOffset":56288,
			"target":34963
		},
		{
			"buffer":0,
			"byteLength":768,
			"byteOffset":69020,
			"target":34962
		},
		{
			"buffer":0,
			"byteLength":768,
			"byteOffset":69788,
			"target":34962
		},
		{
			"buffer":0,
			"byteLength":512,
			"byteOffset":70556,
			"target":34962
		},
		{
			"buffer":0,
			"byteLength":372,
			"byteOffset":71068,
			"target":34963
		},
		{
			"buffer":0,
			"byteLength":1416,
			"byteOffset":71440,
			"target":34962
		},
		{
			"buffer":0,
			"byteLength":1416,
			"byteOffset":72856,
			"target":34962
		},
		{
			"buffer":0,
			"byteLength":944,
			"byteOffset":74272,
			"target":34962
		},
		{
			"buffer":0,
			"byteLength":696,
			"byteOffset":75216,
			"target":34963
		}
	],
	"samplers":[
		{
			"magFilter":9729,
			"minFilter":9987
		}
	],
	"buffers":[
		{
			"byteLength":75912,
			"uri":"MUG.bin"
		}
	]
}
